<svg width="320" height="568" viewBox="0 0 320 568" fill="none" xmlns="http://www.w3.org/2000/svg">
<path opacity="0.5" d="M-9.16974 506.188L-9.17526 506.193L-9.18061 506.198C-16.0683 513.09 -19.5 522.006 -19.5 532.899C-19.5 544.687 -12.7921 555.794 0.435455 566.223C13.7391 577.112 36.0266 582.5 67.1717 582.5C77.6551 582.5 89.7051 578.871 103.308 571.665C117.306 564.461 131.296 555.06 145.281 543.466C159.67 531.868 172.065 519.266 182.462 505.661C193.263 492.051 200.48 478.62 204.092 465.368C216.06 422.654 228.228 379.142 240.595 334.831L240.596 334.83C252.963 290.12 264.931 246.608 276.5 204.293C278.075 198.78 280.608 195.128 284.041 193.219L284.059 193.21L284.075 193.198C287.553 190.878 293.029 189.488 300.577 189.09C300.578 189.09 300.579 189.09 300.58 189.09L347.828 187.294C347.832 187.294 347.835 187.294 347.839 187.294C348.797 187.291 349.801 186.814 350.834 185.987C351.877 185.152 353.003 183.918 354.213 182.304C356.626 179.084 358.836 175.465 360.842 171.449C362.839 167.453 363.887 164.367 363.887 162.244C363.887 159.203 363.333 156.833 362.145 155.212C360.936 153.562 359.125 152.762 356.805 152.762C346.822 152.762 337.435 153.161 328.645 153.96C319.88 154.359 310.317 154.558 299.955 154.558C297.244 154.558 294.733 153.979 292.417 152.823C290.7 151.781 289.89 149.472 290.277 145.551C290.674 143.561 290.876 141.756 290.88 140.138L291.469 137.192L292.068 134.198L292.069 134.192C293.264 127.812 294.659 120.833 296.254 113.254C298.246 105.28 300.438 97.1059 302.829 88.7322C306.813 75.5758 311.195 63.0186 315.975 51.0604C321.149 39.1143 326.713 29.3767 332.662 21.8367C339.006 13.9017 345.26 10.0507 351.419 10.0507C359.223 10.0507 365.042 13.3526 368.94 19.9836L368.949 19.9988L368.959 20.0134C373.32 26.3608 376.891 33.506 379.671 41.452L379.675 41.4647C382.87 49.8552 386.065 57.648 389.26 64.8429L389.265 64.8527C390.894 68.3166 393.097 70.9416 395.884 72.6976C398.671 74.4534 402.008 75.3194 405.875 75.3194C410.36 75.3194 414.352 74.0934 417.832 71.6351C421.305 69.1817 424.245 65.5189 426.664 60.679C431.885 51.0312 434.5 40.9723 434.5 30.5085C434.5 17.1391 428.008 6.21663 415.13 -2.24137C402.267 -11.089 386.606 -15.5 368.174 -15.5C349.335 -15.5 329.515 -10.4865 308.718 -0.482508C287.895 9.13511 268.292 24.7541 249.906 46.3519L249.902 46.356C231.899 67.9742 216.913 96.7772 204.931 132.745L200.144 147.116L200.144 147.116L200.14 147.127C199.352 149.691 198.429 151.565 197.394 152.789C196.369 154.001 195.253 154.558 194.036 154.558H194.023L194.011 154.559L157.508 156.355L157.505 156.355C150.18 156.762 144.452 159.827 140.37 165.546L140.366 165.552C136.764 170.757 134.891 175.056 134.891 178.411C134.891 182.457 135.697 185.583 137.394 187.705L137.411 187.727L137.431 187.747C139.177 189.494 142.35 190.288 146.761 190.288L146.769 190.288L182.067 189.69C182.069 189.69 182.071 189.69 182.072 189.69C185.596 189.69 187.896 190.574 189.153 192.191C190.412 193.811 190.742 196.318 189.96 199.847L108.58 493.241C108.58 493.241 108.58 493.242 108.579 493.243C105.393 504.403 102.008 514.363 98.4272 523.123C94.4495 532.277 90.2843 539.413 85.9392 544.552C81.6233 549.656 76.767 552.159 71.3606 552.159C63.9361 552.159 58.1034 549.238 53.8115 543.381L53.8053 543.373L53.7987 543.365C49.0197 537.387 44.4397 531.21 40.0586 524.834C36.0641 518.839 31.671 512.644 26.8796 506.252C24.4687 503.035 22.1406 500.598 19.892 498.962C17.6426 497.325 15.447 496.471 13.3144 496.471C5.18697 496.471 -2.31158 499.729 -9.16974 506.188Z" stroke="white"/>
</svg>
